<svg xmlns="http://www.w3.org/2000/svg" viewBox="0 0 240 50"><defs><style>.cls-1{fill:#004282;}.cls-2{fill:#a7a9ac;}.cls-3{fill:#00b3f0;}.cls-4{fill:#007dc5;}</style></defs><g id="Logo"><path class="cls-1" d="M59.35,28.87l-3.24-4.68H52.54v4.68H48.65V12.07h7.27a9.46,9.46,0,0,1,3.88.74,5.81,5.81,0,0,1,2.53,2.11,5.87,5.87,0,0,1,.89,3.24,5.48,5.48,0,0,1-3.46,5.31l3.77,5.4ZM58.37,16a4.12,4.12,0,0,0-2.67-.75H52.54v5.85H55.7a4,4,0,0,0,2.67-.77,2.66,2.66,0,0,0,.91-2.16A2.66,2.66,0,0,0,58.37,16Z"/><path class="cls-1" d="M75.24,17.19a5.47,5.47,0,0,1,1.61,4.31v7.37H73.34V27.26q-1.05,1.8-3.93,1.8a6.06,6.06,0,0,1-2.58-.51,3.72,3.72,0,0,1-1.67-1.39,3.64,3.64,0,0,1-.58-2,3.36,3.36,0,0,1,1.36-2.83,6.89,6.89,0,0,1,4.19-1h3a2.4,2.4,0,0,0-.74-1.88,3.28,3.28,0,0,0-2.23-.66,6.68,6.68,0,0,0-2,.32,5.4,5.4,0,0,0-1.69.88l-1.35-2.62a8.25,8.25,0,0,1,2.54-1.15,11.36,11.36,0,0,1,3-.41A6.73,6.73,0,0,1,75.24,17.19Zm-3.19,8.9a2.39,2.39,0,0,0,1-1.3V23.47H70.54c-1.54,0-2.31.5-2.31,1.51a1.34,1.34,0,0,0,.57,1.14,2.51,2.51,0,0,0,1.54.42A3.26,3.26,0,0,0,72.05,26.09Z"/><path class="cls-1" d="M81,28.66a8.2,8.2,0,0,1-2.45-1L79.75,25a7.74,7.74,0,0,0,2.09.9,8.77,8.77,0,0,0,2.4.35c1.58,0,2.37-.39,2.37-1.18a.82.82,0,0,0-.64-.79,9.48,9.48,0,0,0-2-.41,19,19,0,0,1-2.62-.55,4.11,4.11,0,0,1-1.79-1.1,3.17,3.17,0,0,1-.76-2.26,3.53,3.53,0,0,1,.71-2.17,4.47,4.47,0,0,1,2.07-1.48,8.83,8.83,0,0,1,3.2-.53,12.68,12.68,0,0,1,2.73.3,7.66,7.66,0,0,1,2.24.83l-1.25,2.66a7.58,7.58,0,0,0-3.72-1,3.83,3.83,0,0,0-1.8.34,1,1,0,0,0-.6.87.84.84,0,0,0,.65.83,10.28,10.28,0,0,0,2.06.46,22.44,22.44,0,0,1,2.59.57,3.88,3.88,0,0,1,1.76,1.09A3.12,3.12,0,0,1,90.19,25a3.38,3.38,0,0,1-.72,2.13,4.52,4.52,0,0,1-2.1,1.45,9.22,9.22,0,0,1-3.28.52A12.23,12.23,0,0,1,81,28.66Z"/><path class="cls-1" d="M94.55,28.21a6.37,6.37,0,0,1-3.5-5.8A6.42,6.42,0,0,1,92,19a6.25,6.25,0,0,1,2.57-2.36,7.89,7.89,0,0,1,3.7-.86,7.2,7.2,0,0,1,3.57.86A5.09,5.09,0,0,1,104,19.05l-2.91,1.56a3.17,3.17,0,0,0-2.9-1.77,3.27,3.27,0,0,0-2.42,1,3.53,3.53,0,0,0-1,2.61,3.55,3.55,0,0,0,1,2.62,3.27,3.27,0,0,0,2.42,1,3.12,3.12,0,0,0,2.9-1.78L104,25.8a5.25,5.25,0,0,1-2.22,2.4,7.2,7.2,0,0,1-3.57.86A7.88,7.88,0,0,1,94.55,28.21Z"/><path class="cls-1" d="M117.35,17.2a5.73,5.73,0,0,1,1.47,4.27v7.4h-3.74V22.05a3.4,3.4,0,0,0-.67-2.29,2.49,2.49,0,0,0-2-.76,3,3,0,0,0-2.25.88,3.61,3.61,0,0,0-.84,2.6v6.39h-3.75V11.06h3.75V17.3a4.78,4.78,0,0,1,1.8-1.14,6.35,6.35,0,0,1,2.3-.4A5.33,5.33,0,0,1,117.35,17.2Z"/><path class="cls-1" d="M139.37,25.27h-7.8l-1.49,3.6h-4l7.49-16.8h3.84l7.51,16.8h-4.08Zm-1.23-2.95-2.66-6.44-2.67,6.44Z"/><path class="cls-1" d="M159,11.06V28.87H155.4V27.38a4.94,4.94,0,0,1-4,1.68,6.62,6.62,0,0,1-3.3-.82,5.82,5.82,0,0,1-2.32-2.32,7.12,7.12,0,0,1-.84-3.51,7.08,7.08,0,0,1,.84-3.5,5.78,5.78,0,0,1,2.32-2.33,6.73,6.73,0,0,1,3.3-.82,4.92,4.92,0,0,1,3.86,1.56V11.06Zm-4.6,14a3.58,3.58,0,0,0,.93-2.6,3.6,3.6,0,0,0-.93-2.6,3.37,3.37,0,0,0-4.73,0,3.56,3.56,0,0,0-.94,2.6,3.55,3.55,0,0,0,.94,2.6,3.34,3.34,0,0,0,4.73,0Z"/><path class="cls-1" d="M174.77,16l-5.45,12.91h-3.87L160,16h3.86l3.58,8.78,3.7-8.78Z"/><path class="cls-1" d="M176,13.55a1.92,1.92,0,0,1-.64-1.48,2,2,0,0,1,.64-1.49,2.38,2.38,0,0,1,1.68-.6,2.44,2.44,0,0,1,1.68.57A1.85,1.85,0,0,1,180,12a2,2,0,0,1-.65,1.54,2.6,2.6,0,0,1-3.36,0ZM175.82,16h3.74V28.87h-3.74Z"/><path class="cls-1" d="M183.77,28.66a8.09,8.09,0,0,1-2.45-1L182.56,25a7.88,7.88,0,0,0,2.09.9,8.88,8.88,0,0,0,2.4.35c1.59,0,2.38-.39,2.38-1.18a.83.83,0,0,0-.65-.79,9.33,9.33,0,0,0-2-.41,19,19,0,0,1-2.62-.55,4.08,4.08,0,0,1-1.78-1.1,3.12,3.12,0,0,1-.76-2.26,3.53,3.53,0,0,1,.71-2.17,4.49,4.49,0,0,1,2.06-1.48,8.86,8.86,0,0,1,3.2-.53,12.55,12.55,0,0,1,2.73.3,7.66,7.66,0,0,1,2.24.83l-1.24,2.66a7.59,7.59,0,0,0-3.73-1,3.81,3.81,0,0,0-1.79.34,1,1,0,0,0-.6.87.83.83,0,0,0,.64.83,10.42,10.42,0,0,0,2.07.46,22.93,22.93,0,0,1,2.59.57,3.85,3.85,0,0,1,1.75,1.09A3.08,3.08,0,0,1,193,25a3.38,3.38,0,0,1-.72,2.13,4.57,4.57,0,0,1-2.1,1.45,9.25,9.25,0,0,1-3.28.52A12.23,12.23,0,0,1,183.77,28.66Z"/><path class="cls-1" d="M197.31,28.21a6.36,6.36,0,0,1-2.53-2.37,6.47,6.47,0,0,1-.91-3.43,6.49,6.49,0,0,1,.91-3.43,6.26,6.26,0,0,1,2.53-2.36,8.2,8.2,0,0,1,7.31,0A6.3,6.3,0,0,1,207.14,19a6.49,6.49,0,0,1,.91,3.43,6.47,6.47,0,0,1-.91,3.43,6.39,6.39,0,0,1-2.52,2.37,8.28,8.28,0,0,1-7.31,0Zm6-3.2a3.62,3.62,0,0,0,.92-2.6,3.64,3.64,0,0,0-.92-2.6,3.38,3.38,0,0,0-4.74,0,3.56,3.56,0,0,0-.94,2.6,3.55,3.55,0,0,0,.94,2.6,3.36,3.36,0,0,0,4.74,0Z"/><path class="cls-1" d="M215.46,16.24a6.71,6.71,0,0,1,2.63-.48v3.46l-.84,0a3.41,3.41,0,0,0-2.52.9,3.63,3.63,0,0,0-.92,2.7v6.1h-3.74V16h3.58v1.7A4.15,4.15,0,0,1,215.46,16.24Z"/><path class="cls-1" d="M233.11,16l-5.83,13.7a6.73,6.73,0,0,1-2.2,3.14,5.35,5.35,0,0,1-3.15.92,6.53,6.53,0,0,1-2-.32,4.49,4.49,0,0,1-1.61-.86l1.37-2.66a3.22,3.22,0,0,0,1,.59,3,3,0,0,0,1.12.22,2,2,0,0,0,1.24-.37,3.21,3.21,0,0,0,.87-1.24L224,29l-5.6-13h3.87l3.62,8.76L229.51,16Z"/><path class="cls-2" d="M51.41,42a4.12,4.12,0,0,1-1.57-1.53,4.49,4.49,0,0,1,0-4.38,4.08,4.08,0,0,1,1.58-1.53,4.92,4.92,0,0,1,4-.24,3.62,3.62,0,0,1,1.35.91l-.57.57a3.31,3.31,0,0,0-2.48-1,3.56,3.56,0,0,0-1.81.46,3.32,3.32,0,0,0-1.28,1.24,3.67,3.67,0,0,0,0,3.56,3.32,3.32,0,0,0,1.28,1.24,3.56,3.56,0,0,0,1.81.46,3.29,3.29,0,0,0,2.48-1l.57.57a3.62,3.62,0,0,1-1.35.91,4.53,4.53,0,0,1-1.74.32A4.57,4.57,0,0,1,51.41,42Z"/><path class="cls-2" d="M61,34h.89v7.63h4.7v.77H61Z"/><path class="cls-2" d="M71.75,41.94a4.08,4.08,0,0,1-1.58-1.53,4.45,4.45,0,0,1,0-4.36,4.08,4.08,0,0,1,1.58-1.53,4.88,4.88,0,0,1,4.52,0A4.12,4.12,0,0,1,77.84,36a4.42,4.42,0,0,1,0,4.38A4.12,4.12,0,0,1,76.27,42a4.88,4.88,0,0,1-4.52,0Zm4.06-.68A3.32,3.32,0,0,0,77.08,40a3.75,3.75,0,0,0,0-3.56,3.32,3.32,0,0,0-1.27-1.25A3.58,3.58,0,0,0,74,34.75a3.65,3.65,0,0,0-1.81.45,3.32,3.32,0,0,0-1.27,1.25,3.67,3.67,0,0,0,0,3.56,3.32,3.32,0,0,0,1.27,1.25,3.65,3.65,0,0,0,1.81.45A3.58,3.58,0,0,0,75.81,41.26Z"/><path class="cls-2" d="M83.65,41.57a3.77,3.77,0,0,1-.91-2.73V34h.89v4.78A3.14,3.14,0,0,0,84.29,41a2.44,2.44,0,0,0,1.9.72A2.47,2.47,0,0,0,88.11,41a3.14,3.14,0,0,0,.66-2.18V34h.87v4.81a3.77,3.77,0,0,1-.91,2.73,3.93,3.93,0,0,1-5.08,0Z"/><path class="cls-2" d="M94.71,34h3.42a5.1,5.1,0,0,1,2.36.53,4,4,0,0,1,1.58,1.49,4.52,4.52,0,0,1,0,4.36,4,4,0,0,1-1.58,1.49,5.1,5.1,0,0,1-2.36.53H94.71Zm3.38,7.63a4,4,0,0,0,1.93-.44A3.11,3.11,0,0,0,101.3,40a3.67,3.67,0,0,0,0-3.56A3.11,3.11,0,0,0,100,35.24a4,4,0,0,0-1.93-.44H95.6v6.86Z"/><path class="cls-2" d="M118.58,42.56l-1.16-1.2a3.67,3.67,0,0,1-2.81,1.14,3.76,3.76,0,0,1-1.46-.27,2.34,2.34,0,0,1-1-.75,1.84,1.84,0,0,1-.36-1.11,2.11,2.11,0,0,1,.48-1.36,5.74,5.74,0,0,1,1.63-1.26,5.47,5.47,0,0,1-.83-1.06,2,2,0,0,1-.22-.93,1.63,1.63,0,0,1,.57-1.3A2.31,2.31,0,0,1,115,34a2.18,2.18,0,0,1,1.43.44,1.54,1.54,0,0,1,.53,1.23,1.7,1.7,0,0,1-.42,1.12,5.74,5.74,0,0,1-1.46,1.1l2.31,2.37a5.41,5.41,0,0,0,.56-1.62l.7.22a5.41,5.41,0,0,1-.75,1.93l1.2,1.24Zm-1.67-1.71-2.53-2.61a5.27,5.27,0,0,0-1.37,1,1.59,1.59,0,0,0-.38,1,1.31,1.31,0,0,0,.56,1.1,2.37,2.37,0,0,0,1.47.41A2.89,2.89,0,0,0,116.91,40.85ZM114,34.92a1.06,1.06,0,0,0-.35.83,1.37,1.37,0,0,0,.19.7,5.08,5.08,0,0,0,.76.92,7,7,0,0,0,1.26-.9,1.18,1.18,0,0,0,.34-.82.94.94,0,0,0-.32-.76,1.33,1.33,0,0,0-.9-.28A1.42,1.42,0,0,0,114,34.92Z"/><path class="cls-2" d="M128.54,34H132a5.06,5.06,0,0,1,2.35.53,4,4,0,0,1,1.59,1.49,4.52,4.52,0,0,1,0,4.36,4,4,0,0,1-1.59,1.49,5.06,5.06,0,0,1-2.35.53h-3.42Zm3.37,7.63a4,4,0,0,0,1.94-.44A3.11,3.11,0,0,0,135.13,40a3.67,3.67,0,0,0,0-3.56,3.11,3.11,0,0,0-1.28-1.21,4,4,0,0,0-1.94-.44h-2.48v6.86Z"/><path class="cls-2" d="M146,40.19h-4.68l-1,2.24h-.92l3.84-8.4h.88l3.84,8.4H147Zm-.32-.72-2-4.52-2,4.52Z"/><path class="cls-2" d="M153,34.8H150V34h6.79v.77h-2.95v7.63H153Z"/><path class="cls-2" d="M165.45,40.19h-4.68l-1,2.24h-.93l3.84-8.4h.88l3.84,8.4h-.94Zm-.32-.72-2-4.52-2,4.52Z"/><path class="cls-2" d="M182.75,42.56l-1.17-1.2a4,4,0,0,1-4.26.87,2.38,2.38,0,0,1-1-.75,1.84,1.84,0,0,1-.36-1.11,2.11,2.11,0,0,1,.48-1.36,5.82,5.82,0,0,1,1.64-1.26,5.09,5.09,0,0,1-.83-1.06,2,2,0,0,1-.23-.93,1.61,1.61,0,0,1,.58-1.3,2.28,2.28,0,0,1,1.54-.49,2.18,2.18,0,0,1,1.43.44,1.54,1.54,0,0,1,.53,1.23,1.7,1.7,0,0,1-.42,1.12,5.65,5.65,0,0,1-1.45,1.1l2.3,2.37a5.15,5.15,0,0,0,.57-1.62l.69.22a5.59,5.59,0,0,1-.74,1.93l1.2,1.24Zm-1.67-1.71-2.53-2.61a5.18,5.18,0,0,0-1.38,1,1.59,1.59,0,0,0-.38,1,1.31,1.31,0,0,0,.56,1.1,2.37,2.37,0,0,0,1.47.41A2.92,2.92,0,0,0,181.08,40.85Zm-2.92-5.93a1,1,0,0,0-.36.83,1.47,1.47,0,0,0,.19.7,5.08,5.08,0,0,0,.76.92,6.29,6.29,0,0,0,1.26-.9,1.19,1.19,0,0,0,.35-.82,1,1,0,0,0-.33-.76,1.29,1.29,0,0,0-.9-.28A1.4,1.4,0,0,0,178.16,34.92Z"/><path class="cls-2" d="M198,40.19h-4.68l-1,2.24h-.93L195.2,34h.88l3.84,8.4H199Zm-.32-.72-2-4.52-2,4.52Z"/><path class="cls-2" d="M203.71,34h.89v8.4h-.89Z"/><path class="cls-3" d="M3.77,12.5A2.2,2.2,0,0,1,6,16.31a2.2,2.2,0,1,1-2.2-3.81Zm18-7.83a2.2,2.2,0,1,0,.8-3A2.19,2.19,0,0,0,21.73,4.67ZM15.47,8.28a2.2,2.2,0,1,0,.81-3A2.2,2.2,0,0,0,15.47,8.28ZM9.22,11.89a2.2,2.2,0,1,0,.8-3A2.21,2.21,0,0,0,9.22,11.89ZM31.81,8.28a2.2,2.2,0,1,0-3,.8A2.19,2.19,0,0,0,31.81,8.28Zm6.25,3.61a2.2,2.2,0,1,0-3,.81A2.19,2.19,0,0,0,38.06,11.89Zm-17.13-1a1.35,1.35,0,0,1-.65,1.21l-.1.05a1.32,1.32,0,0,1-1.37,0,2.76,2.76,0,0,0-2.79,0,2.72,2.72,0,0,0-1.35,2.43A1.34,1.34,0,0,1,14,15.7l-.09.06a1.31,1.31,0,0,1-1.35,0A2.71,2.71,0,1,0,13.83,18a1.35,1.35,0,0,1,.69-1.16l.15-.09a1.36,1.36,0,0,1,1.35,0,2.71,2.71,0,0,0,4.07-2.35,1.37,1.37,0,0,1,.69-1.16l.19-.11a1.29,1.29,0,0,1,1.3,0,2.72,2.72,0,0,0,2.6.08h0l.11-.06.05,0a1.36,1.36,0,0,1,1.38,0l.09,0a1.39,1.39,0,0,1,.69,1.21,2.71,2.71,0,1,0,1.35-2.33,1.37,1.37,0,0,1-1.41,0L27,12a1.39,1.39,0,0,1-.69-1.19s0,0,0-.06a2.69,2.69,0,0,0-4.06-2.34A2.69,2.69,0,0,0,20.93,10.88ZM31.6,20.66,24.91,16.8a2.47,2.47,0,0,0-2.52,0L15.7,20.66l8,4.59Z"/><path class="cls-1" d="M22.54,48.84a2.2,2.2,0,1,1,3-.8A2.19,2.19,0,0,1,22.54,48.84ZM6.78,37.2a2.2,2.2,0,1,0-3,.81A2.19,2.19,0,0,0,6.78,37.2ZM13,40.81a2.2,2.2,0,1,0-3,.81A2.21,2.21,0,0,0,13,40.81Zm6.25,3.61a2.2,2.2,0,1,0-3,.81A2.19,2.19,0,0,0,19.29,44.42ZM4.87,26.67a2.2,2.2,0,1,0,2.2,2.19A2.19,2.19,0,0,0,4.87,26.67Zm0-7.23a2.2,2.2,0,1,0,2.2,2.2A2.2,2.2,0,0,0,4.87,19.44Zm7.69,15.35a1.32,1.32,0,0,1,1.37,0l.1.06A1.31,1.31,0,0,1,14.68,36,2.71,2.71,0,0,0,16,38.45a2.74,2.74,0,0,0,2.78,0,1.34,1.34,0,0,1,1.38,0l.09.05A1.3,1.3,0,0,1,21,39.6a2.72,2.72,0,1,0,1.35-2.23,1.36,1.36,0,0,1-1.35,0l-.15-.08a1.35,1.35,0,0,1-.69-1.16A2.72,2.72,0,0,0,16,33.75a1.36,1.36,0,0,1-1.35,0l-.19-.11a1.31,1.31,0,0,1-.66-1.12,2.69,2.69,0,0,0-1.23-2.29h0l-.11-.07,0,0a1.36,1.36,0,0,1-.69-1.19v-.1a1.37,1.37,0,0,1,.7-1.2,2.72,2.72,0,1,0-2.69,0,1.39,1.39,0,0,1,.72,1.21v.1a1.35,1.35,0,0,1-.68,1.19l-.05,0a2.56,2.56,0,0,0-.92.87,2.71,2.71,0,0,0,3.71,3.78Zm11.09-9.54L15.7,20.66h0v7.73A2.54,2.54,0,0,0,17,30.58l6.69,3.86h0Z"/><path class="cls-4" d="M31.61,28.39a2.52,2.52,0,0,1-1.27,2.19l-6.69,3.86h0V25.25l8-4.59h0ZM42.43,12.22a2.2,2.2,0,1,0,2.2,2.2A2.2,2.2,0,0,0,42.43,12.22Zm2.2,23.87a2.2,2.2,0,1,1-2.2-2.2A2.2,2.2,0,0,1,44.63,36.09Zm0-7.23a2.2,2.2,0,1,1-2.2-2.19A2.19,2.19,0,0,1,44.63,28.86Zm0-7.22a2.2,2.2,0,1,1-2.2-2.2A2.19,2.19,0,0,1,44.63,21.64ZM35.07,37.81a2.2,2.2,0,1,1-.8,3A2.19,2.19,0,0,1,35.07,37.81Zm-6.25,3.61a2.2,2.2,0,1,1-.81,3A2.2,2.2,0,0,1,28.82,41.42Zm10.06-8.94a2.71,2.71,0,0,1-4.06,2.35l0,0a1.32,1.32,0,0,0-1.37,0l-.09,0a1.39,1.39,0,0,0-.69,1.23,2.71,2.71,0,0,1-5.17,1.14,2.73,2.73,0,0,1,1.07-3.47,2.7,2.7,0,0,1,2.76,0,1.38,1.38,0,0,0,1.4,0l.09,0a1.35,1.35,0,0,0,.68-1.19s0,0,0-.06v-.13h0a2.72,2.72,0,0,1,1.37-2.21A1.28,1.28,0,0,0,35.47,29v-.22a1.36,1.36,0,0,0-.65-1.18,2.71,2.71,0,0,1,0-4.7,1.36,1.36,0,0,0,.65-1.18v-.18a1.36,1.36,0,0,0-.65-1.17,2.72,2.72,0,1,1,2.6.05,1.33,1.33,0,0,0-.69,1.16v.11a1.35,1.35,0,0,0,.73,1.17,2.72,2.72,0,0,1,0,4.78,1.34,1.34,0,0,0-.73,1.17v.11a1.32,1.32,0,0,0,.73,1.17A2.71,2.71,0,0,1,38.88,32.48Z"/></g></svg>