<svg xmlns="http://www.w3.org/2000/svg" viewBox="0 0 230.44 47.76"><defs><style>.cls-1{font-size:24px;font-family:Montserrat-Bold, Montserrat;font-weight:700;letter-spacing:-0.02em;}.cls-1,.cls-12{fill:#004282;}.cls-2{letter-spacing:-0.02em;}.cls-3{letter-spacing:-0.02em;}.cls-4{letter-spacing:-0.02em;}.cls-5{letter-spacing:-0.01em;}.cls-6{font-size:12px;fill:#a7a9ac;font-family:Montserrat-Regular, Montserrat;letter-spacing:0.2em;}.cls-7{letter-spacing:0.19em;}.cls-8{letter-spacing:0.19em;}.cls-9{letter-spacing:0.17em;}.cls-10{letter-spacing:0.2em;}.cls-11{fill:#00b3f0;}.cls-13{fill:#007dc5;}</style></defs><g id="Layer_2" data-name="Layer 2"><g id="Logo"><text class="cls-1" transform="translate(43.99 27.5)">R<tspan class="cls-2" x="17.04" y="0">as</tspan><tspan class="cls-3" x="43.63" y="0">c</tspan><tspan class="cls-2" x="57.24" y="0">h </tspan><tspan x="79.65" y="0">A</tspan><tspan class="cls-4" x="97.44" y="0">dviso</tspan><tspan class="cls-5" x="161.69" y="0">r</tspan><tspan class="cls-4" x="171.91" y="0">y</tspan></text><text class="cls-6" transform="translate(45.98 41.06)">C<tspan class="cls-7" x="11.03" y="0">L</tspan><tspan x="20.33" y="0">OUD &amp; </tspan><tspan class="cls-8" x="78.53" y="0">D</tspan><tspan class="cls-9" x="90.72" y="0">AT</tspan><tspan class="cls-10" x="110.17" y="0">A &amp; AI</tspan></text><path class="cls-11" d="M1.1,11.13a2.2,2.2,0,0,1,2.2,3.81,2.2,2.2,0,1,1-2.2-3.81Zm18-7.83a2.2,2.2,0,1,0,.8-3A2.19,2.19,0,0,0,19.06,3.3ZM12.81,6.91a2.2,2.2,0,1,0,.8-3A2.19,2.19,0,0,0,12.81,6.91ZM6.55,10.52a2.2,2.2,0,1,0,.8-3A2.21,2.21,0,0,0,6.55,10.52ZM29.14,6.91a2.2,2.2,0,1,0-3,.8A2.19,2.19,0,0,0,29.14,6.91Zm6.26,3.61a2.2,2.2,0,1,0-3,.81A2.2,2.2,0,0,0,35.4,10.52Zm-17.14-1a1.35,1.35,0,0,1-.65,1.21l-.1,0a1.32,1.32,0,0,1-1.37,0A2.71,2.71,0,0,0,12,13.12a1.34,1.34,0,0,1-.66,1.21l-.09.06a1.31,1.31,0,0,1-1.35,0,2.71,2.71,0,1,0,1.26,2.29,1.37,1.37,0,0,1,.69-1.16l.15-.09a1.36,1.36,0,0,1,1.35,0A2.71,2.71,0,0,0,17.42,13a1.37,1.37,0,0,1,.69-1.16l.19-.11a1.31,1.31,0,0,1,1.3,0,2.7,2.7,0,0,0,2.6.09h0l.11-.06.05,0a1.36,1.36,0,0,1,1.38,0l.09.05A1.39,1.39,0,0,1,24.52,13a2.71,2.71,0,1,0,1.35-2.33,1.37,1.37,0,0,1-1.41,0l-.09-.05a1.34,1.34,0,0,1-.68-1.19s0,0,0-.05a2.69,2.69,0,0,0-4.06-2.34A2.69,2.69,0,0,0,18.26,9.51Zm10.68,9.78-6.7-3.87a2.52,2.52,0,0,0-2.52,0L13,19.29l8,4.59Z"/><path class="cls-12" d="M19.87,47.47a2.2,2.2,0,1,1,3-.8A2.19,2.19,0,0,1,19.87,47.47ZM4.11,35.83A2.2,2.2,0,0,0,.3,33.63a2.22,2.22,0,0,0,.81,3A2.21,2.21,0,0,0,4.11,35.83Zm6.26,3.61a2.2,2.2,0,1,0-3,.81A2.21,2.21,0,0,0,10.37,39.44Zm6.25,3.61a2.2,2.2,0,1,0-3,.81A2.19,2.19,0,0,0,16.62,43.05ZM2.2,25.3a2.2,2.2,0,1,0,2.2,2.19A2.19,2.19,0,0,0,2.2,25.3Zm0-7.23a2.2,2.2,0,1,0,2.2,2.2A2.2,2.2,0,0,0,2.2,18.07ZM9.89,33.42a1.32,1.32,0,0,1,1.37,0l.1,0A1.33,1.33,0,0,1,12,34.65a2.71,2.71,0,0,0,1.36,2.43,2.74,2.74,0,0,0,2.78,0,1.34,1.34,0,0,1,1.38,0l.09,0a1.29,1.29,0,0,1,.66,1.17A2.71,2.71,0,1,0,19.63,36a1.36,1.36,0,0,1-1.35,0l-.15-.09a1.32,1.32,0,0,1-.69-1.15,2.72,2.72,0,0,0-4.07-2.35,1.36,1.36,0,0,1-1.35,0l-.19-.11a1.31,1.31,0,0,1-.66-1.12A2.7,2.7,0,0,0,10,28.84h0l-.1-.07-.05,0a1.36,1.36,0,0,1-.69-1.19v-.1a1.4,1.4,0,0,1,.7-1.21,2.7,2.7,0,0,0,1.38-2.39,2.72,2.72,0,1,0-4.07,2.39,1.39,1.39,0,0,1,.72,1.21v.1a1.35,1.35,0,0,1-.68,1.19l-.05,0a2.64,2.64,0,0,0-.92.87,2.71,2.71,0,0,0,3.71,3.78ZM21,23.88l-8-4.59h0V27a2.54,2.54,0,0,0,1.26,2.19L21,33.07h0Z"/><path class="cls-13" d="M28.94,27a2.54,2.54,0,0,1-1.26,2.19L21,33.07h0V23.88l8-4.59h0ZM39.76,10.85a2.2,2.2,0,1,0,2.2,2.2A2.19,2.19,0,0,0,39.76,10.85ZM42,34.72a2.2,2.2,0,1,1-2.2-2.2A2.19,2.19,0,0,1,42,34.72Zm0-7.23a2.2,2.2,0,1,1-2.2-2.19A2.19,2.19,0,0,1,42,27.49Zm0-7.22a2.2,2.2,0,1,1-2.2-2.2A2.19,2.19,0,0,1,42,20.27ZM32.4,36.44a2.2,2.2,0,1,1-.8,3A2.19,2.19,0,0,1,32.4,36.44Zm-6.25,3.61a2.2,2.2,0,1,1-.81,3A2.19,2.19,0,0,1,26.15,40.05Zm10.06-8.94a2.71,2.71,0,0,1-2.84,2.71,2.63,2.63,0,0,1-1.21-.36l-.06,0a1.32,1.32,0,0,0-1.37,0l-.09,0A1.42,1.42,0,0,0,30,34.72a2.67,2.67,0,0,1-1.45,2.4,2.71,2.71,0,1,1,.12-4.74,1.38,1.38,0,0,0,1.39,0l.09,0a1.39,1.39,0,0,0,.69-1.19V31h0a2.72,2.72,0,0,1,1.37-2.21,1.29,1.29,0,0,0,.64-1.12v-.22a1.36,1.36,0,0,0-.65-1.18,2.71,2.71,0,0,1,0-4.7,1.36,1.36,0,0,0,.65-1.18v-.18A1.35,1.35,0,0,0,32.15,19a2.72,2.72,0,1,1,2.6.05,1.32,1.32,0,0,0-.68,1.16v.11a1.34,1.34,0,0,0,.72,1.17,2.72,2.72,0,0,1,0,4.78,1.32,1.32,0,0,0-.72,1.17v.11a1.32,1.32,0,0,0,.72,1.17A2.71,2.71,0,0,1,36.21,31.11Z"/></g></g></svg>